<svg id="Layer_1" data-name="Layer 1" xmlns="http://www.w3.org/2000/svg" viewBox="0 0 81.36 80.26"><defs><style>.cls-1{fill:#fff;}</style></defs><g id="Pause"><path class="cls-1" d="M30.48,30V50.31a2.54,2.54,0,1,0,5.08,0V30a2.54,2.54,0,0,0-5.08,0ZM50.8,50.31V30a2.54,2.54,0,0,0-5.08,0V50.31a2.54,2.54,0,0,0,5.08,0ZM47.73,0a2.54,2.54,0,1,0-.88,5,35.63,35.63,0,0,1,0,70.17,2.54,2.54,0,0,0,.44,5,2.09,2.09,0,0,0,.43,0A40.7,40.7,0,0,0,47.73,0ZM34.51,75.21a35.62,35.62,0,0,1,0-70.16,2.54,2.54,0,0,0-.88-5,40.71,40.71,0,0,0,0,80.18,3.42,3.42,0,0,0,.44,0,2.54,2.54,0,0,0,.44-5.05Z"/></g></svg>