<svg id="Layer_1" data-name="Layer 1" xmlns="http://www.w3.org/2000/svg" viewBox="0 0 81.35 81.36"><defs><style>.cls-1{fill:#fff;}</style></defs><g id="Play"><path class="cls-1" d="M79.22,44.79a2.55,2.55,0,0,0-3,2.06,35.57,35.57,0,1,1,0-12.34,2.56,2.56,0,0,0,5-.88,40.71,40.71,0,1,0,0,14.09A2.53,2.53,0,0,0,79.22,44.79ZM34.13,28.25l-.07,0a2.85,2.85,0,0,0-.5-.14,3.86,3.86,0,0,0-.49-.1H33a2.41,2.41,0,0,0-.37.07,3.21,3.21,0,0,0-.52.11,2.61,2.61,0,0,0-.43.24c-.13.09-.27.16-.39.26a2.87,2.87,0,0,0-.34.44,3,3,0,0,0-.22.28s0,.06,0,.08a2.62,2.62,0,0,0-.13.48,2.22,2.22,0,0,0-.1.5s0,0,0,.08V50.84s0,0,0,.08a2.22,2.22,0,0,0,.1.5,2.62,2.62,0,0,0,.13.48s0,.05,0,.08a2.88,2.88,0,0,0,.45.63l.13.09a2.6,2.6,0,0,0,.59.41l.23.09a2.37,2.37,0,0,0,.87.18h0a2.61,2.61,0,0,0,1.05-.25l.07,0L54.46,43a2.53,2.53,0,0,0,0-4.54Zm1.41,18.48V34.63l12.1,6Z"/></g></svg>