<svg id="Layer_1" data-name="Layer 1" xmlns="http://www.w3.org/2000/svg" viewBox="0 0 81.36 81.35"><defs><style>.cls-1{fill:#fff;}</style></defs><g id="rewind"><g id="Fast_Forward"><path class="cls-1" d="M44.79,2.12a2.55,2.55,0,0,0,2.06,3,35.6,35.6,0,1,1-12.34,0,2.56,2.56,0,0,0-.87-5A40.68,40.68,0,1,0,47.72,0,2.54,2.54,0,0,0,44.79,2.12Z"/></g><path class="cls-1" d="M59.43,34a2.87,2.87,0,0,0-5.4,2,14.19,14.19,0,1,1-19.9-7.75v4.51a2.54,2.54,0,0,0,2.54,2.57,2.51,2.51,0,0,0,1.41-.43l12.17-8.23a2.6,2.6,0,0,0,0-4.29L38.08,14.07A2.52,2.52,0,0,0,35.47,14a2.56,2.56,0,0,0-1.34,2.26v5.73a19.92,19.92,0,1,0,25.3,12ZM39.2,21l5.07,3.42L39.2,27.87Z"/></g></svg>